<svg width="149" height="254" viewBox="0 0 149 254" fill="none" xmlns="http://www.w3.org/2000/svg">
<path d="M77.3709 203.849C79.9832 203.448 80.0991 201.076 77.567 201.281C76.2158 201.482 74.9454 202.05 73.8937 202.922C74.8914 203.664 76.1359 203.996 77.3709 203.849Z" fill="white"/>
<path d="M102.486 205.115C102.255 204.928 101.336 206.078 100.373 207.344C101.577 206.354 102.682 205.293 102.486 205.115Z" fill="white"/>
<path d="M124.713 208.993C125.417 208.021 123.822 207.665 122.868 209.778L122.752 210.072C123.52 209.979 124.223 209.593 124.713 208.993Z" fill="white"/>
<path d="M54.511 208.752C53.8245 208.503 52.6565 209.082 52.0503 210.09C51.6402 210.785 51.7471 211.498 52.4871 211.498C53.2272 211.498 54.1722 210.527 54.8855 209.038C54.7941 208.905 54.6629 208.805 54.511 208.752Z" fill="white"/>
<path d="M105.232 208.993C105.937 208.021 104.341 207.665 103.387 209.778L103.271 210.072C104.04 209.979 104.743 209.593 105.232 208.993Z" fill="white"/>
<path d="M67.9915 151.229H62.9453L67.9915 154.83V173.277H80.8212V151.229H72.6455H67.9915Z" fill="white"/>
<path d="M27.9244 160.1H40.4866V151.229H32.5873H27.9244H22.8781L27.9244 154.83V160.1Z" fill="white"/>
<path d="M88.6848 30.849C89.0474 30.3556 89.1455 29.9633 88.979 29.6721C88.8822 29.5305 88.7466 29.4199 88.5884 29.3535C88.4303 29.2871 88.2564 29.2677 88.0875 29.2976C87.5109 29.4204 86.9799 29.7014 86.554 30.109C85.8652 30.7643 85.3267 31.5612 84.9759 32.4449L84.7263 33.0601C85.4512 32.924 86.1575 32.7025 86.8304 32.4003C87.576 32.0581 88.2164 31.5225 88.6848 30.849Z" fill="white"/>
<path d="M27.9244 103.61H22.8781L27.9244 107.212V125.658H40.7541V103.61H32.5873H27.9244Z" fill="white"/>
<path d="M67.9915 78.1377H80.8212V56.0803H72.6455H67.9915H62.9453L67.9915 59.6823V78.1377Z" fill="white"/>
<path d="M61.0106 207.326C62.2142 206.336 63.3197 205.275 63.1236 205.097C62.9274 204.919 62.0002 206.078 61.0106 207.326Z" fill="white"/>
<path d="M0.60675 0.767334V253.491L24.8307 236.213L49.6163 253.491L74.4019 236.213L99.1875 253.491L123.973 236.213L148.197 253.491V0.767334H0.60675ZM99.0003 32.1416H129.929V34.3616H99.0003V32.1416ZM99.0003 47.9135H111.928L120.844 66.36V47.9135H129.893V86.3044H121.985L107.961 60.3063V86.3044H99.0003V47.9135ZM99.0003 95.5232H129.929V103.779H103.012L107.88 107.247V110.814H122.27V118.891H107.871V125.837H129.929V133.914H99.0003V95.5232ZM76.8269 19.2585C77.2242 19.0709 77.6717 19.0177 78.1019 19.1069C78.2861 19.1421 78.4609 19.2159 78.6145 19.3235C78.7682 19.431 78.8973 19.5699 78.9935 19.731C79.2047 20.0946 79.2923 20.517 79.2431 20.9346C79.1463 21.6569 78.8358 22.3337 78.3515 22.8782C77.8036 23.5505 77.2077 24.1822 76.5684 24.7684L74.4821 26.7209C73.7873 27.3642 73.187 28.1026 72.699 28.9142C73.2898 28.4379 73.9293 28.0254 74.6069 27.6838C75.1888 27.393 75.8288 27.2376 76.4792 27.2291C76.7755 27.1997 77.0747 27.2295 77.3594 27.3167C77.6441 27.404 77.9086 27.5469 78.1376 27.7373C78.3046 27.9235 78.4307 28.1427 78.5075 28.3808C78.5843 28.6189 78.6101 28.8705 78.5833 29.1192C78.5224 29.8138 78.3414 30.4925 78.0484 31.1252C77.6781 31.961 77.2367 32.7634 76.7289 33.5236C76.5529 33.8307 76.398 34.1494 76.2653 34.4775C76.1151 34.7592 76.0013 35.0588 75.9265 35.3691C75.8579 35.5715 75.8579 35.7908 75.9265 35.9932C75.9978 36.1626 76.1672 36.2428 76.4347 36.2428C76.8763 36.2332 77.3109 36.1299 77.7096 35.9397C78.205 35.715 78.6743 35.437 79.1094 35.1106C79.5927 34.7531 80.0405 34.3501 80.4467 33.9069C80.8626 33.468 81.2274 32.9835 81.5344 32.4626C81.6179 32.3293 81.7134 32.204 81.8197 32.0881C81.8732 31.9722 81.9356 31.8474 81.998 31.7315C82.3618 31.0089 82.8108 30.3324 83.3354 29.7166C83.8442 29.0911 84.4455 28.5469 85.1185 28.1028C85.755 27.6712 86.4698 27.3683 87.2226 27.2113C87.9672 27.0696 88.7371 27.1534 89.4337 27.452C89.929 27.6545 90.3625 27.9835 90.6908 28.406C90.9695 28.7817 91.1308 29.2315 91.1545 29.6987C91.1655 30.2019 91.0555 30.7003 90.8335 31.152C90.5694 31.7 90.1927 32.1861 89.7279 32.5785C89.0244 33.206 88.2195 33.7094 87.3475 34.0674C86.4504 34.4585 85.5064 34.7312 84.539 34.8788C84.6175 35.2889 84.8425 35.6565 85.172 35.913C85.4737 36.1406 85.8251 36.2933 86.1973 36.3588C86.7924 36.4534 87.401 36.4169 87.9805 36.2518C88.6633 36.0616 89.3216 35.7924 89.9419 35.4494C90.6144 35.0805 91.2476 34.6444 91.832 34.1477C92.4241 33.6456 92.9566 33.0772 93.419 32.4537C93.6074 32.1941 93.855 31.9832 94.1412 31.8385C94.2285 31.7953 94.3246 31.7728 94.4221 31.7728C94.5195 31.7728 94.6156 31.7953 94.7029 31.8385C94.7785 31.8879 94.8386 31.9576 94.8764 32.0396C94.9143 32.1216 94.9283 32.2125 94.9169 32.3021C94.889 32.6045 94.7744 32.8924 94.587 33.1313C93.9868 33.9905 93.3061 34.7905 92.5542 35.5207C91.8543 36.2096 91.0832 36.8222 90.254 37.3484C89.4807 37.8413 88.6478 38.2338 87.7754 38.5163C86.9707 38.7872 86.1281 38.9287 85.279 38.9354C84.4434 38.9586 83.6163 38.7619 82.8807 38.3648C82.2558 38.0107 81.7524 37.4762 81.4364 36.8313C81.2141 36.3463 81.0898 35.8221 81.0708 35.2889C80.5057 35.9057 79.8882 36.4725 79.2253 36.9828C78.5094 37.5284 77.7385 37.9975 76.925 38.3826C76.1953 38.733 75.3985 38.9216 74.5891 38.9354C74.0639 38.9541 73.5434 38.8309 73.0824 38.5788C72.7007 38.3802 72.3894 38.0689 72.1908 37.6872C72.0162 37.2551 71.9607 36.784 72.0303 36.3231C72.1045 35.7423 72.2923 35.1819 72.5831 34.6737C72.8815 34.0867 73.2243 33.5234 73.6084 32.9886C74.0274 32.3913 74.3841 31.8474 74.6872 31.3571C74.9309 30.9872 75.1061 30.5765 75.2043 30.1445C75.2578 29.8325 75.0706 29.6809 74.6337 29.6987C74.2523 29.7538 73.8874 29.8907 73.5638 30.0999C73.0527 30.4323 72.588 30.831 72.1819 31.2857C71.5688 31.9515 71.0084 32.6639 70.5057 33.4166C69.8995 34.3081 69.2397 35.378 68.5264 36.6441L68.4016 36.9472L67.831 38.133C67.7329 38.3652 67.5799 38.5701 67.3852 38.7303C67.2031 38.862 66.9858 38.9365 66.7611 38.9443C66.5026 38.9443 66.137 38.9443 65.6645 38.9443C65.3662 38.9461 65.0681 38.9253 64.7729 38.8819C64.6726 38.8714 64.5761 38.8378 64.491 38.7836C64.4059 38.7295 64.3345 38.6563 64.2826 38.5698C64.1936 38.3343 64.1936 38.0743 64.2826 37.8388C64.4292 37.3586 64.6264 36.8953 64.871 36.4568C65.3168 35.5653 65.9409 34.4686 66.7433 33.0778C67.5457 31.6869 68.4284 30.2158 69.418 28.6823C70.4077 27.1489 71.3884 25.651 72.4137 24.2245C73.3292 22.8989 74.3174 21.625 75.3737 20.4086C75.7658 19.9211 76.2624 19.5281 76.8269 19.2585ZM88.6759 132.773C87.7746 133.545 86.6169 133.952 85.4306 133.914H63.3821C62.193 133.953 61.0323 133.546 60.1279 132.773C59.7051 132.42 59.3671 131.976 59.1387 131.474C58.9104 130.973 58.7975 130.426 58.8083 129.875V95.443H67.9469V125.756H80.8568V95.443H89.9954V129.875C90.0083 130.427 89.8962 130.974 89.6677 131.475C89.4392 131.977 89.1001 132.421 88.6759 132.773ZM89.8617 147.1V177.414C89.8744 177.965 89.7632 178.513 89.5364 179.016C89.3096 179.519 88.9729 179.965 88.5511 180.32C87.6731 181.078 86.5457 181.485 85.386 181.462H63.4267C62.2667 181.487 61.1387 181.08 60.2616 180.32C59.8372 179.966 59.4981 179.521 59.2696 179.018C59.0412 178.515 58.9292 177.966 58.9421 177.414V147.1C58.9385 146.557 59.0549 146.02 59.283 145.527C59.5111 145.033 59.8452 144.597 60.2616 144.247C61.1251 143.46 62.2585 143.036 63.4267 143.062H85.386C86.5539 143.037 87.6866 143.462 88.5511 144.247C88.9644 144.599 89.2959 145.036 89.5223 145.529C89.7487 146.022 89.8646 146.558 89.8617 147.1ZM58.9421 82.2656V51.9523C58.9397 51.4091 59.0566 50.8721 59.2847 50.3791C59.5127 49.8861 59.8462 49.4492 60.2616 49.0993C61.1275 48.316 62.2593 47.8919 63.4267 47.9135H85.386C86.5531 47.8937 87.6843 48.3175 88.5511 49.0993C88.9639 49.4508 89.2951 49.8883 89.5215 50.381C89.7479 50.8738 89.864 51.41 89.8617 51.9523V82.2656C89.8743 82.8159 89.7631 83.3621 89.5362 83.8636C89.3094 84.3652 88.9727 84.8093 88.5511 85.1632C87.6731 85.9213 86.5457 86.3278 85.386 86.3044H63.4267C62.269 86.3344 61.1413 85.9341 60.2616 85.181C59.835 84.827 59.4945 84.3805 59.2659 83.8754C59.0373 83.3703 58.9265 82.8198 58.9421 82.2656ZM49.8838 38.2667C49.91 37.8704 50.0035 37.4815 50.1601 37.1166C50.2939 36.8313 50.4365 36.6708 50.6059 36.653C50.7753 36.6351 50.909 36.8224 51.0339 37.2057C51.1318 37.5938 51.3465 37.9424 51.6491 38.2043C51.9216 38.4388 52.2503 38.5985 52.603 38.6679C52.9677 38.7434 53.3439 38.7434 53.7086 38.6679C54.0915 38.5879 54.4551 38.4334 54.7785 38.2132C55.0797 38.0127 55.3577 37.7795 55.6076 37.5178C55.8861 37.236 56.1481 36.9383 56.3922 36.6262C56.6512 36.2853 56.8922 35.9312 57.1144 35.5653L57.7296 34.5221C58.1129 33.8267 58.5141 33.051 58.9243 32.213L60.217 29.6185C60.6539 28.7269 61.1086 27.9245 61.5722 27.1221C62.0122 26.3617 62.4944 25.6265 63.0166 24.9199C62.0358 24.9823 61.064 25.0091 60.1011 24.9823C59.1382 24.9556 58.2199 24.9021 57.3462 24.804C56.513 24.7093 55.6856 24.5694 54.8676 24.385C54.194 24.2411 53.5368 24.029 52.9062 23.752C52.3308 23.5213 51.8242 23.1468 51.4351 22.6643C51.0773 22.2343 50.7968 21.7456 50.6059 21.2199C50.4274 20.756 50.3338 20.2637 50.3295 19.7667C50.3161 19.3704 50.3735 18.9749 50.4989 18.5987C50.5299 18.4717 50.5904 18.3538 50.6757 18.2546C50.7609 18.1554 50.8684 18.0778 50.9893 18.0281C51.2033 17.9568 51.444 18.0281 51.7115 18.3847C52.3486 19.0012 53.1256 19.4539 53.976 19.7043C55.1667 20.1229 56.3891 20.4449 57.6315 20.6671C59.0786 20.9335 60.5404 21.1122 62.0091 21.2021C63.4719 21.3185 64.9417 21.3185 66.4045 21.2021C67.063 20.6886 67.7779 20.2519 68.5354 19.9004C69.2644 19.5489 70.0486 19.3257 70.8534 19.2406C71.4603 19.1507 72.0802 19.2406 72.6366 19.4992C72.825 19.5809 72.989 19.7101 73.1124 19.8742C73.2359 20.0383 73.3146 20.2317 73.3409 20.4353C73.3482 20.6753 73.307 20.9144 73.2196 21.138C73.1323 21.3617 73.0007 21.5655 72.8327 21.737C72.343 22.3076 71.7344 22.764 71.0496 23.0744C70.3109 23.4324 69.5447 23.7306 68.7583 23.9659C67.9074 24.2283 67.0409 24.4367 66.1638 24.59C66.1638 24.59 66.1638 24.59 66.1014 24.59C65.4539 25.2432 64.9152 25.9956 64.5055 26.819C63.9794 27.8086 63.4445 28.9231 62.9274 30.1445C62.4103 31.366 61.8753 32.6587 61.3404 34.005C60.8055 35.3513 60.217 36.6262 59.691 37.7942C59.272 38.7358 58.7293 39.6173 58.0773 40.4154C57.5389 41.0912 56.8836 41.665 56.1426 42.1094C55.5 42.4897 54.7817 42.7241 54.0385 42.7959C53.3185 42.8543 52.5964 42.7124 51.9522 42.3858C51.4019 42.1326 50.9305 41.7352 50.5881 41.2356C50.2836 40.7845 50.0686 40.279 49.9551 39.7467C49.8573 39.2597 49.8332 38.7608 49.8838 38.2667ZM52.5585 137.98H42.0379L39.2652 133.834H23.3596C22.1981 133.858 21.0694 133.448 20.1945 132.684C19.7677 132.328 19.4272 131.88 19.1986 131.373C18.97 130.867 18.8594 130.315 18.875 129.759V99.4461C18.8738 98.9032 18.9913 98.3665 19.2192 97.8737C19.4472 97.3809 19.78 96.9438 20.1945 96.5931C21.059 95.8075 22.1917 95.3831 23.3596 95.4073H45.3189C46.4871 95.3812 47.6205 95.8059 48.484 96.5931C48.9004 96.9422 49.2345 97.379 49.4626 97.8722C49.6907 98.3653 49.8071 98.9028 49.8035 99.4461V129.759C49.824 130.711 49.4721 131.632 48.8228 132.327L52.5585 137.98ZM18.8839 32.1416H49.8035V34.3616H18.8839V32.1416ZM18.8839 52.0414C18.8744 51.4885 18.9832 50.9399 19.2031 50.4324C19.423 49.925 19.7488 49.4704 20.1589 49.0993C21.0335 48.3012 22.185 47.8758 23.3685 47.9135H45.2387C46.4318 47.8822 47.5921 48.3062 48.484 49.0993C48.9063 49.4628 49.2434 49.9149 49.4715 50.4234C49.6995 50.9318 49.8129 51.4843 49.8035 52.0414V60.9571H40.7541V56.1694H22.8781L27.8353 59.7357V78.2268H40.7541V73.3945H49.8035V82.3102C49.8123 82.8569 49.6983 83.3987 49.4699 83.8955C49.2416 84.3924 48.9046 84.8317 48.484 85.181C47.581 85.9504 46.4245 86.3571 45.2387 86.3223H23.3596C22.1836 86.3629 21.0362 85.955 20.1499 85.181C19.7378 84.8213 19.4099 84.3751 19.1895 83.8744C18.9692 83.3736 18.8618 82.8304 18.875 82.2835L18.8839 52.0414ZM18.8839 143.062H44.9712C46.1651 143.026 47.327 143.45 48.2165 144.247C48.6329 144.597 48.9671 145.033 49.1952 145.527C49.4233 146.02 49.5396 146.557 49.536 147.1V164.147C49.5454 164.704 49.432 165.257 49.204 165.765C48.976 166.274 48.6388 166.726 48.2165 167.089C47.3246 167.883 46.1643 168.307 44.9712 168.275L53.7532 181.47H43.2148L34.4239 168.275H27.9244V181.47H18.875L18.8839 143.062ZM19.7755 216.277C19.0711 216.358 18.7323 215.653 19.4099 214.886C22.2451 211.775 22.682 202.467 19.3297 201.513C17.6446 201.014 21.7993 198.785 23.5914 201.718C25.7757 205.284 23.1278 212.176 20.8186 214.806C25.2765 212.274 28.5039 200.612 34.0852 199.088C37.1343 198.241 38.3201 201.7 37.0184 201.397C31.455 200.131 26.2572 215.511 19.8111 216.242L19.7755 216.277ZM32.9707 205.989C32.5784 204.99 34.7538 203.893 35.1996 204.945C35.6454 205.998 33.3808 206.969 33.0064 205.989H32.9707ZM62.6778 206.818C61.8664 207.558 60.6717 208.405 59.8604 209.002C59.3611 210.072 59.2987 211.115 59.7712 211.463C60.2438 211.811 61.4296 211.151 62.3746 209.778C62.8026 209.127 63.3464 209.412 62.9363 210.09C61.9556 211.721 60.431 212.943 59.0936 212.943C58.3269 212.943 57.7474 212.354 57.8009 211.16C56.9093 212.051 55.6076 212.943 54.9389 212.943C54.2703 212.943 53.7621 212.675 53.6997 212.051C53.4786 212.313 53.2065 212.527 52.8999 212.681C52.5933 212.834 52.2587 212.923 51.9165 212.943C51.7056 212.935 51.4985 212.885 51.3075 212.795C51.1165 212.705 50.9455 212.578 50.8048 212.421C50.6642 212.263 50.5567 212.079 50.4888 211.879C50.4209 211.68 50.394 211.468 50.4098 211.258C49.6677 212.089 48.6919 212.676 47.6102 212.943C46.9059 212.943 46.3442 212.622 46.371 211.9C46.1507 212.198 45.8686 212.446 45.544 212.626C45.2194 212.806 44.8598 212.914 44.4898 212.943C43.7052 212.943 43.402 212.417 43.509 211.57C42.8229 212.349 41.8673 212.839 40.8343 212.943C40.0943 212.943 39.6129 212.399 39.6931 211.329C38.982 212.17 38.0027 212.74 36.9203 212.943C35.9574 212.943 35.788 212.051 36.5726 210.607C36.9114 210.018 37.2681 209.475 37.589 209.02C37.1169 209.342 36.5379 209.466 35.9753 209.368C35.8393 209.626 35.6748 209.868 35.4849 210.09V210.134C34.7627 211.374 32.7121 212.943 31.7671 212.943C30.822 212.943 30.1712 212.381 30.7685 211.053C31.3659 209.724 31.7047 208.958 32.088 208.209C32.4714 207.46 32.6319 207.388 33.2738 207.317C33.9158 207.246 34.4685 207.201 34.0584 207.923C33.6483 208.645 33.0331 209.706 32.6854 210.339C32.3377 210.972 31.9365 211.668 32.4358 211.668C32.9619 211.554 33.458 211.329 33.8913 211.01C34.3247 210.69 34.6855 210.282 34.95 209.813C35.1202 209.582 35.2722 209.337 35.4047 209.082C34.4507 208.111 36.0109 205.792 36.9917 206.229C37.4553 206.443 37.0897 207.058 36.8936 207.62C37.1875 207.725 37.5104 207.714 37.7968 207.59C38.0832 207.466 38.3117 207.238 38.436 206.951C38.8015 206.452 39.5683 207.228 39.2028 207.843C38.9709 208.244 38.0705 209.876 37.8743 210.286C37.5534 210.937 37.1165 211.614 37.6336 211.614C38.1577 211.504 38.6519 211.282 39.0826 210.963C39.5133 210.645 39.8705 210.237 40.13 209.769C40.4897 208.855 40.9471 207.982 41.4941 207.165C41.7081 206.845 41.9934 206.399 42.3143 205.962H40.8789C40.4153 205.962 40.8789 205.266 41.4138 205.231C42.1748 205.124 42.9183 204.917 43.6249 204.616C44.5165 204.25 45.738 203.831 44.8642 204.785L44.8018 204.856C45.8271 204.723 46.7811 204.598 47.2001 204.509C48.1987 204.312 46.8257 205.962 46.0233 205.962H43.9459C43.4466 206.648 42.8849 207.469 42.4926 208.066C41.6011 209.412 41.075 211.222 41.4584 211.463C41.8418 211.704 43.1167 211.151 44.0618 209.778C44.315 209.234 44.6132 208.712 44.9534 208.218C45.0819 207.964 45.2746 207.748 45.5123 207.591C45.75 207.435 46.0245 207.343 46.3086 207.326C46.9594 207.237 47.4141 207.255 46.9237 207.932C44.8196 210.901 44.891 211.57 45.3902 211.57C46.1392 211.57 46.6117 210.616 47.1734 209.608C47.4141 209.091 47.6102 208.717 47.8242 208.253C48.1987 207.495 48.3681 207.433 49.01 207.362C49.6519 207.29 50.1869 207.246 49.7946 207.968C49.4023 208.69 48.7693 209.751 48.4216 210.384C48.0739 211.017 47.6727 211.712 48.1719 211.712C48.6985 211.599 49.1951 211.375 49.6285 211.056C50.062 210.736 50.4225 210.328 50.6862 209.858C50.7738 209.679 50.8783 209.509 50.9982 209.35C52.2464 207.647 54.2703 207.103 55.2956 208.137C55.3831 207.918 55.5345 207.731 55.7301 207.599C55.9256 207.467 56.1563 207.397 56.3922 207.397C57.043 207.308 57.5691 207.281 57.1768 208.004C56.7845 208.726 56.1426 209.787 55.7948 210.42C55.4471 211.053 55.037 211.748 55.5541 211.748C56.0777 211.633 56.571 211.408 57.0013 211.089C57.4317 210.769 57.7893 210.362 58.0505 209.894C58.4017 208.972 58.8659 208.098 59.4324 207.29C61.2156 204.616 62.9363 203.608 63.7476 204.152C64.5144 204.464 64.0864 205.543 62.7134 206.818H62.6778ZM71.8074 215.609C67.831 215.609 65.3614 211.356 67.7864 206.336C68.4275 205.011 69.2898 203.805 70.3363 202.77C68.7315 200.193 72.7436 197.144 72.3691 199.355C72.2659 199.925 72.312 200.512 72.5028 201.058C74.1033 200.053 75.9629 199.539 77.8523 199.578C82.5062 199.694 82.212 205.177 76.711 205.373C75.173 205.466 73.6371 205.159 72.2532 204.482C71.5297 205.28 70.9288 206.182 70.4701 207.157C68.8207 210.669 69.2843 213.959 71.5934 214.102C72.069 214.147 72.5471 214.047 72.9643 213.814C73.3814 213.581 73.7178 213.227 73.9287 212.798C74.1397 212.369 74.2152 211.887 74.1452 211.414C74.0753 210.941 73.8631 210.501 73.5371 210.152C72.4315 209.082 76.5684 209.002 77.032 211.409C77.353 213.487 75.2578 215.609 71.8074 215.609ZM133.236 210.09C132.838 210.738 132.3 211.289 131.662 211.703C131.023 212.116 130.3 212.381 129.545 212.479C129.091 212.796 128.547 212.958 127.994 212.943C127.791 212.958 127.588 212.93 127.396 212.862C127.205 212.793 127.03 212.685 126.883 212.545C126.736 212.405 126.62 212.235 126.543 212.047C126.465 211.859 126.428 211.657 126.434 211.454C125.532 212.342 124.337 212.872 123.073 212.943C122.819 212.971 122.562 212.947 122.318 212.871C122.074 212.795 121.849 212.669 121.656 212.501C121.463 212.334 121.307 212.128 121.198 211.897C121.089 211.666 121.029 211.415 121.022 211.16C120.109 211.986 119.021 212.596 117.839 212.943C117.36 213.995 116.509 214.833 115.45 215.297C112.57 216.304 111.393 213.656 113.417 212.533C113.652 212.418 113.893 212.317 114.139 212.23C113.968 211.937 113.876 211.605 113.872 211.267C113.117 212.099 112.129 212.683 111.036 212.943C110.082 212.943 109.334 212.381 109.94 211.053C110.403 210.027 111.723 208.378 110.831 208.378C110.172 208.378 108.469 210.848 107.836 212.328C107.64 212.765 107.533 212.934 107.336 212.934H106.962C106.472 212.934 106.275 212.8 106.427 212.345C106.516 212.078 106.605 211.837 106.695 211.588C105.824 212.4 104.692 212.877 103.503 212.934C103.255 212.961 103.004 212.937 102.765 212.865C102.526 212.792 102.305 212.671 102.114 212.51C101.923 212.35 101.767 212.152 101.654 211.929C101.542 211.706 101.476 211.462 101.461 211.213C101.097 211.689 100.641 212.086 100.12 212.382C99.5997 212.678 99.0246 212.865 98.4297 212.934C97.6807 212.934 97.1101 212.363 97.1369 211.258C96.7804 211.725 96.3325 212.114 95.8206 212.402C95.3086 212.691 94.7432 212.871 94.159 212.934C93.3923 212.934 92.8217 212.345 92.8752 211.151C91.9836 212.042 90.6819 212.934 90.0132 212.934C89.3446 212.934 88.8364 212.666 88.774 212.042C88.5525 212.304 88.2803 212.518 87.9738 212.671C87.6673 212.824 87.3329 212.914 86.9908 212.934C86.781 212.934 86.5732 212.892 86.3802 212.809C86.1872 212.727 86.0129 212.606 85.8679 212.455C85.7228 212.303 85.6101 212.123 85.5365 211.927C85.4628 211.73 85.4299 211.521 85.4395 211.311C84.6676 212.208 83.5907 212.786 82.4171 212.934C81.2135 212.934 80.8658 211.953 81.4542 210.821C82.0426 209.689 83.3265 208.351 82.4617 208.378C81.8465 208.378 80.8658 209.27 79.466 211.784L79.4036 211.935C78.931 212.934 78.9935 212.934 78.0573 212.934C77.3976 212.934 77.0588 212.872 77.665 211.712C79.1225 208.938 80.8358 206.305 82.7826 203.849C83.8079 202.717 84.7619 203.171 84.6817 204.107C84.5747 205.454 82.4349 206.479 81.5166 208.03C82.0246 207.554 82.6776 207.262 83.3711 207.201C84.9046 207.201 84.5568 208.645 83.487 210.295C83.0858 210.91 82.7915 211.623 83.3087 211.623C83.8349 211.512 84.3311 211.289 84.7634 210.969C85.1958 210.649 85.5541 210.24 85.814 209.769C85.9017 209.592 86.0031 209.422 86.1171 209.261C87.3742 207.558 89.3981 207.014 90.4234 208.048C90.5099 207.828 90.661 207.64 90.8568 207.508C91.0526 207.376 91.2838 207.306 91.52 207.308C92.1708 207.219 92.6969 207.192 92.3046 207.914C91.9123 208.637 91.2614 209.698 90.9137 210.331C90.566 210.964 90.1648 211.659 90.673 211.659C91.1984 211.546 91.6937 211.322 92.1257 211.002C92.5577 210.682 92.9166 210.274 93.1783 209.805C93.5263 208.881 93.9907 208.007 94.5602 207.201C96.3434 204.526 98.0641 203.519 98.8754 204.063C99.5352 204.5 99.1162 205.605 97.7431 206.853C96.9318 207.593 95.7371 208.44 94.9258 209.038C94.4265 210.108 94.3641 211.151 94.8366 211.498C95.3092 211.846 96.495 211.186 97.44 209.813C97.7948 208.892 98.262 208.017 98.8309 207.21C100.614 204.535 102.335 203.528 103.146 204.072C103.806 204.509 103.387 205.614 102.014 206.862C101.202 207.602 100.008 208.449 99.1964 209.047C98.6971 210.117 98.6347 211.16 99.0983 211.507C99.562 211.855 100.766 211.195 101.711 209.822C101.752 209.701 101.8 209.582 101.853 209.466C102.549 208.093 104.055 206.791 105.518 207.388C106.605 207.852 106.623 209.029 105.669 209.885C104.943 210.496 104.059 210.888 103.119 211.017C103.166 211.207 103.27 211.379 103.416 211.51C103.563 211.64 103.745 211.723 103.94 211.748C104.983 211.926 106.552 211.044 107.443 209.876C107.738 209.234 107.978 208.744 108.219 208.262C108.33 207.988 108.523 207.754 108.772 207.594C109.022 207.435 109.314 207.356 109.61 207.371C110.127 207.371 110.127 207.567 109.824 208.262C110.288 207.755 110.923 207.437 111.607 207.371C113.141 207.371 113.203 208.654 112.026 210.375C111.616 210.964 111.135 211.793 111.607 211.793C112.134 211.68 112.63 211.456 113.064 211.136C113.497 210.816 113.858 210.408 114.121 209.938C114.215 209.75 114.325 209.571 114.451 209.403C115.655 207.772 117.554 207.21 118.624 208.057C118.9 207.602 119.096 207.549 119.658 207.451C120.22 207.353 120.826 207.335 120.442 208.057C120.059 208.779 119.444 209.84 119.052 210.473C118.72 210.998 118.422 211.543 118.16 212.105C119.317 211.664 120.334 210.919 121.102 209.947C121.144 209.826 121.191 209.707 121.245 209.591C121.94 208.218 123.447 206.916 124.909 207.513C125.997 207.977 126.015 209.154 125.061 210.01C124.334 210.619 123.45 211.011 122.511 211.142C122.558 211.332 122.661 211.504 122.808 211.634C122.954 211.765 123.137 211.848 123.331 211.873C124.383 212.051 126.006 211.142 126.897 209.956C128.868 207.281 128.6 207.442 130.071 207.442C130.963 207.442 131.088 207.567 131.088 207.861C131.088 208.467 130.392 207.968 130.482 208.886C130.588 209.79 130.481 210.706 130.17 211.561C131.127 211.339 131.963 210.758 132.505 209.938C133.04 209.109 133.593 209.394 133.201 210.09H133.236ZM133.914 192.767H18.9017V190.573H133.914V192.767ZM123.331 181.47L114.549 168.293H108.05V181.47H99.0003V143.062H125.088C126.284 143.026 127.449 143.451 128.342 144.247C128.758 144.597 129.092 145.033 129.32 145.527C129.549 146.02 129.665 146.557 129.661 147.1V164.147C129.671 164.704 129.557 165.257 129.329 165.765C129.101 166.274 128.764 166.726 128.342 167.089C127.447 167.883 126.283 168.307 125.088 168.275L133.878 181.47H123.331Z" fill="white"/>
<path d="M98.2157 205.115C97.9839 204.928 97.0656 206.078 96.1027 207.344C97.3063 206.354 98.4118 205.293 98.2157 205.115Z" fill="white"/>
<path d="M128.484 211.481C129.269 210.696 128.832 209.038 129.073 208.36C129.073 208.36 128.377 209.154 127.86 209.867C126.719 211.436 127.923 212.042 128.484 211.481Z" fill="white"/>
<path d="M115.539 210.09C115.129 210.785 115.236 211.499 115.976 211.499C116.716 211.499 117.438 210.473 118.133 208.824L118 208.77C117.277 208.503 116.136 209.109 115.539 210.09Z" fill="white"/>
<path d="M114.469 212.898C113.185 213.317 113.212 214.298 114.121 214.316C114.563 214.247 114.984 214.078 115.35 213.821C115.716 213.565 116.019 213.228 116.234 212.836C115.65 212.708 115.043 212.73 114.469 212.898Z" fill="white"/>
<path d="M89.6388 208.752C88.9612 208.503 87.7843 209.082 87.187 210.09C86.7769 210.785 86.8839 211.498 87.6239 211.498C88.3639 211.498 89.3089 210.527 90.0222 209.038C89.9295 208.903 89.7946 208.802 89.6388 208.752Z" fill="white"/>
<path d="M108.05 151.229H103.003L108.05 154.83V160.1H120.612V151.229H112.704H108.05Z" fill="white"/>
</svg>
